<mxfile host="app.diagrams.net" modified="2023-02-28T03:41:31.985Z" agent="5.0 (Windows NT 10.0; Win64; x64) AppleWebKit/537.36 (KHTML, like Gecko) Chrome/109.0.0.0 Safari/537.36" etag="J2PqtjUqQFpxOyZZZbIH" version="20.8.23" type="github">
  <diagram name="Page-1" id="b7a7eaba-c6c5-6fbe-34ae-1d3a4219ac39">
    <mxGraphModel dx="1195" dy="737" grid="1" gridSize="10" guides="1" tooltips="1" connect="1" arrows="1" fold="1" page="1" pageScale="1.5" pageWidth="1169" pageHeight="826" background="none" math="0" shadow="0">
      <root>
        <mxCell id="0" style=";html=1;" />
        <mxCell id="1" style=";html=1;" parent="0" />
        <mxCell id="279d4c6e8b4f5ae2-2" value="" style="html=1;shadow=0;dashed=0;align=center;verticalAlign=middle;shape=mxgraph.arrows2.arrow;dy=0.5;dx=15;direction=north;notch=0;rounded=0;strokeWidth=1;fontSize=20;rotation=35;fillColor=#f8cecc;strokeColor=#b85450;" parent="1" vertex="1">
          <mxGeometry x="330.54" y="601.65" width="20" height="266" as="geometry" />
        </mxCell>
        <mxCell id="279d4c6e8b4f5ae2-3" value="" style="html=1;shadow=0;dashed=0;align=center;verticalAlign=middle;shape=mxgraph.arrows2.arrow;dy=0.5;dx=15;direction=north;notch=0;rounded=0;strokeWidth=1;fontSize=20;rotation=35;" parent="1" vertex="1">
          <mxGeometry x="799" y="604" width="20" height="240" as="geometry" />
        </mxCell>
        <mxCell id="279d4c6e8b4f5ae2-4" value="" style="html=1;shadow=0;dashed=0;align=center;verticalAlign=middle;shape=mxgraph.arrows2.arrow;dy=0.5;dx=15;direction=north;notch=0;rounded=0;strokeWidth=1;fontSize=20;rotation=35;" parent="1" vertex="1">
          <mxGeometry x="1029" y="604" width="20" height="240" as="geometry" />
        </mxCell>
        <mxCell id="279d4c6e8b4f5ae2-5" value="" style="html=1;shadow=0;dashed=0;align=center;verticalAlign=middle;shape=mxgraph.arrows2.arrow;dy=0.5;dx=15;direction=north;notch=0;rounded=0;strokeWidth=1;fontSize=20;rotation=90;fillColor=#ffe6cc;strokeColor=#d79b00;" parent="1" vertex="1">
          <mxGeometry x="754" y="214" width="20" height="811" as="geometry" />
        </mxCell>
        <mxCell id="279d4c6e8b4f5ae2-6" value="" style="html=1;shadow=0;dashed=0;align=center;verticalAlign=middle;shape=mxgraph.arrows2.arrow;dy=0.5;dx=15;direction=north;notch=0;rounded=0;strokeWidth=1;fontSize=20;rotation=155;fillColor=#e1d5e7;strokeColor=#9673a6;" parent="1" vertex="1">
          <mxGeometry x="426.13" y="307.89" width="20" height="319.85" as="geometry" />
        </mxCell>
        <mxCell id="279d4c6e8b4f5ae2-7" value="" style="html=1;shadow=0;dashed=0;align=center;verticalAlign=middle;shape=mxgraph.arrows2.arrow;dy=0.5;dx=15;direction=north;notch=0;rounded=0;strokeWidth=1;fontSize=20;rotation=155;" parent="1" vertex="1">
          <mxGeometry x="818" y="385" width="20" height="240" as="geometry" />
        </mxCell>
        <mxCell id="279d4c6e8b4f5ae2-8" value="" style="html=1;shadow=0;dashed=0;align=center;verticalAlign=middle;shape=mxgraph.arrows2.arrow;dy=0.5;dx=15;direction=north;notch=0;rounded=0;strokeWidth=1;fontSize=20;rotation=155;" parent="1" vertex="1">
          <mxGeometry x="1048" y="384" width="20" height="240" as="geometry" />
        </mxCell>
        <mxCell id="279d4c6e8b4f5ae2-9" value="本地合约开发" style="rounded=1;whiteSpace=wrap;html=1;shadow=1;strokeWidth=2;fontSize=20;fillColor=#e1d5e7;strokeColor=#9673a6;" parent="1" vertex="1">
          <mxGeometry x="220" y="280" width="150" height="40" as="geometry" />
        </mxCell>
        <mxCell id="279d4c6e8b4f5ae2-10" value="Cell 2" style="rounded=1;whiteSpace=wrap;html=1;shadow=1;strokeWidth=2;fontSize=20;" parent="1" vertex="1">
          <mxGeometry x="709" y="364" width="150" height="40" as="geometry" />
        </mxCell>
        <mxCell id="279d4c6e8b4f5ae2-11" value="Cell 3" style="rounded=1;whiteSpace=wrap;html=1;shadow=1;strokeWidth=2;fontSize=20;" parent="1" vertex="1">
          <mxGeometry x="939" y="364" width="150" height="40" as="geometry" />
        </mxCell>
        <mxCell id="279d4c6e8b4f5ae2-12" value="使用开发框架" style="rounded=1;whiteSpace=wrap;html=1;shadow=1;strokeWidth=2;fontSize=20;fillColor=#f8cecc;strokeColor=#b85450;" parent="1" vertex="1">
          <mxGeometry x="110" y="851" width="150" height="40" as="geometry" />
        </mxCell>
        <mxCell id="279d4c6e8b4f5ae2-13" value="Cell 5" style="rounded=1;whiteSpace=wrap;html=1;shadow=1;strokeWidth=2;fontSize=20;" parent="1" vertex="1">
          <mxGeometry x="672" y="816.0000000000001" width="150" height="40" as="geometry" />
        </mxCell>
        <mxCell id="279d4c6e8b4f5ae2-14" value="Cell 6" style="rounded=1;whiteSpace=wrap;html=1;shadow=1;strokeWidth=2;fontSize=20;" parent="1" vertex="1">
          <mxGeometry x="902" y="816" width="150" height="40" as="geometry" />
        </mxCell>
        <mxCell id="279d4c6e8b4f5ae2-15" value="" style="ellipse;whiteSpace=wrap;html=1;rounded=1;shadow=1;strokeWidth=2;fontSize=20;" parent="1" vertex="1">
          <mxGeometry x="1171" y="560" width="120" height="120" as="geometry" />
        </mxCell>
        <mxCell id="279d4c6e8b4f5ae2-17" value="Event 2" style="html=1;shadow=0;dashed=0;align=center;verticalAlign=middle;shape=mxgraph.arrows2.arrow;dy=0.5;dx=15;direction=north;notch=0;rounded=0;strokeWidth=1;fontSize=20;rotation=90;horizontal=0;labelPosition=left;verticalLabelPosition=middle;" parent="1" vertex="1">
          <mxGeometry x="733" y="401" width="20" height="110" as="geometry" />
        </mxCell>
        <mxCell id="279d4c6e8b4f5ae2-18" value="Event 3" style="html=1;shadow=0;dashed=0;align=center;verticalAlign=middle;shape=mxgraph.arrows2.arrow;dy=0.5;dx=15;direction=north;notch=0;rounded=0;strokeWidth=1;fontSize=20;rotation=90;horizontal=0;labelPosition=left;verticalLabelPosition=middle;" parent="1" vertex="1">
          <mxGeometry x="964" y="401" width="20" height="110" as="geometry" />
        </mxCell>
        <mxCell id="279d4c6e8b4f5ae2-19" value="调试合约" style="html=1;shadow=0;dashed=0;align=center;verticalAlign=middle;shape=mxgraph.arrows2.arrow;dy=0.5;dx=15;direction=north;notch=0;rounded=0;strokeWidth=1;fontSize=20;rotation=90;horizontal=0;labelPosition=left;verticalLabelPosition=middle;fillColor=#f8cecc;strokeColor=#b85450;" parent="1" vertex="1">
          <mxGeometry x="286" y="653" width="20" height="110" as="geometry" />
        </mxCell>
        <mxCell id="279d4c6e8b4f5ae2-20" value="Event 11" style="html=1;shadow=0;dashed=0;align=center;verticalAlign=middle;shape=mxgraph.arrows2.arrow;dy=0.5;dx=15;direction=north;notch=0;rounded=0;strokeWidth=1;fontSize=20;rotation=90;horizontal=0;labelPosition=left;verticalLabelPosition=middle;" parent="1" vertex="1">
          <mxGeometry x="709" y="706" width="20" height="110" as="geometry" />
        </mxCell>
        <mxCell id="279d4c6e8b4f5ae2-21" value="Event 12" style="html=1;shadow=0;dashed=0;align=center;verticalAlign=middle;shape=mxgraph.arrows2.arrow;dy=0.5;dx=15;direction=north;notch=0;rounded=0;strokeWidth=1;fontSize=20;rotation=90;horizontal=0;labelPosition=left;verticalLabelPosition=middle;" parent="1" vertex="1">
          <mxGeometry x="940" y="706" width="20" height="110" as="geometry" />
        </mxCell>
        <mxCell id="279d4c6e8b4f5ae2-23" value="Event 5" style="html=1;shadow=0;dashed=0;align=center;verticalAlign=middle;shape=mxgraph.arrows2.arrow;dy=0.5;dx=15;direction=north;notch=0;rounded=0;strokeWidth=1;fontSize=20;rotation=90;horizontal=0;labelPosition=left;verticalLabelPosition=middle;" parent="1" vertex="1">
          <mxGeometry x="773" y="485" width="20" height="110" as="geometry" />
        </mxCell>
        <mxCell id="279d4c6e8b4f5ae2-24" value="Event 6" style="html=1;shadow=0;dashed=0;align=center;verticalAlign=middle;shape=mxgraph.arrows2.arrow;dy=0.5;dx=15;direction=north;notch=0;rounded=0;strokeWidth=1;fontSize=20;rotation=90;horizontal=0;labelPosition=left;verticalLabelPosition=middle;" parent="1" vertex="1">
          <mxGeometry x="1004" y="485" width="20" height="110" as="geometry" />
        </mxCell>
        <mxCell id="279d4c6e8b4f5ae2-25" value="编译合约" style="html=1;shadow=0;dashed=0;align=center;verticalAlign=middle;shape=mxgraph.arrows2.arrow;dy=0.5;dx=15;direction=north;notch=0;rounded=0;strokeWidth=1;fontSize=20;rotation=90;horizontal=0;labelPosition=left;verticalLabelPosition=middle;fillColor=#f8cecc;strokeColor=#b85450;" parent="1" vertex="1">
          <mxGeometry x="317" y="609" width="20" height="110" as="geometry" />
        </mxCell>
        <mxCell id="279d4c6e8b4f5ae2-26" value="Event 8" style="html=1;shadow=0;dashed=0;align=center;verticalAlign=middle;shape=mxgraph.arrows2.arrow;dy=0.5;dx=15;direction=north;notch=0;rounded=0;strokeWidth=1;fontSize=20;rotation=90;horizontal=0;labelPosition=left;verticalLabelPosition=middle;" parent="1" vertex="1">
          <mxGeometry x="760" y="635" width="20" height="110" as="geometry" />
        </mxCell>
        <mxCell id="279d4c6e8b4f5ae2-27" value="Event 9" style="html=1;shadow=0;dashed=0;align=center;verticalAlign=middle;shape=mxgraph.arrows2.arrow;dy=0.5;dx=15;direction=north;notch=0;rounded=0;strokeWidth=1;fontSize=20;rotation=90;horizontal=0;labelPosition=left;verticalLabelPosition=middle;" parent="1" vertex="1">
          <mxGeometry x="991" y="635" width="20" height="110" as="geometry" />
        </mxCell>
        <mxCell id="KHwoJJ3RHJZZ6YcBAn-g-1" value="部署合约" style="html=1;shadow=0;dashed=0;align=center;verticalAlign=middle;shape=mxgraph.arrows2.arrow;dy=0.5;dx=15;direction=north;notch=0;rounded=0;strokeWidth=1;fontSize=20;rotation=90;horizontal=0;labelPosition=left;verticalLabelPosition=middle;fillColor=#f8cecc;strokeColor=#b85450;" vertex="1" parent="1">
          <mxGeometry x="223" y="740" width="20" height="110" as="geometry" />
        </mxCell>
        <mxCell id="KHwoJJ3RHJZZ6YcBAn-g-2" value="升级合约" style="html=1;shadow=0;dashed=0;align=center;verticalAlign=middle;shape=mxgraph.arrows2.arrow;dy=0.5;dx=15;direction=north;notch=0;rounded=0;strokeWidth=1;fontSize=20;rotation=90;horizontal=0;labelPosition=left;verticalLabelPosition=middle;fillColor=#f8cecc;strokeColor=#b85450;" vertex="1" parent="1">
          <mxGeometry x="195" y="781" width="20" height="110" as="geometry" />
        </mxCell>
        <mxCell id="KHwoJJ3RHJZZ6YcBAn-g-3" value="运行单元测试" style="html=1;shadow=0;dashed=0;align=center;verticalAlign=middle;shape=mxgraph.arrows2.arrow;dy=0.5;dx=15;direction=north;notch=0;rounded=0;strokeWidth=1;fontSize=20;rotation=90;horizontal=0;labelPosition=left;verticalLabelPosition=middle;fillColor=#f8cecc;strokeColor=#b85450;" vertex="1" parent="1">
          <mxGeometry x="252" y="696" width="20" height="110" as="geometry" />
        </mxCell>
        <mxCell id="KHwoJJ3RHJZZ6YcBAn-g-7" value="" style="group" vertex="1" connectable="0" parent="1">
          <mxGeometry x="222" y="520" width="245" height="48" as="geometry" />
        </mxCell>
        <mxCell id="KHwoJJ3RHJZZ6YcBAn-g-4" value="" style="html=1;shadow=0;dashed=0;align=center;verticalAlign=middle;shape=mxgraph.arrows2.arrow;dy=0.5;dx=15;direction=north;notch=0;rounded=0;strokeWidth=1;fontSize=20;rotation=90;horizontal=0;labelPosition=left;verticalLabelPosition=middle;fillColor=#e1d5e7;strokeColor=#9673a6;" vertex="1" parent="KHwoJJ3RHJZZ6YcBAn-g-7">
          <mxGeometry x="180" y="-17" width="20" height="110" as="geometry" />
        </mxCell>
        <mxCell id="KHwoJJ3RHJZZ6YcBAn-g-5" value="&lt;font style=&quot;font-size: 20px;&quot;&gt;使用外部审计的开源合约&lt;/font&gt;" style="text;html=1;align=center;verticalAlign=middle;resizable=0;points=[];autosize=1;strokeColor=none;fillColor=none;" vertex="1" parent="KHwoJJ3RHJZZ6YcBAn-g-7">
          <mxGeometry width="240" height="40" as="geometry" />
        </mxCell>
        <mxCell id="KHwoJJ3RHJZZ6YcBAn-g-8" value="" style="group" vertex="1" connectable="0" parent="1">
          <mxGeometry x="309" y="560" width="175" height="45" as="geometry" />
        </mxCell>
        <mxCell id="279d4c6e8b4f5ae2-22" value="" style="html=1;shadow=0;dashed=0;align=center;verticalAlign=middle;shape=mxgraph.arrows2.arrow;dy=0.5;dx=15;direction=north;notch=0;rounded=0;strokeWidth=1;fontSize=20;rotation=90;horizontal=0;labelPosition=left;verticalLabelPosition=middle;fillColor=#e1d5e7;strokeColor=#9673a6;" parent="KHwoJJ3RHJZZ6YcBAn-g-8" vertex="1">
          <mxGeometry x="110" y="-20" width="20" height="110" as="geometry" />
        </mxCell>
        <mxCell id="KHwoJJ3RHJZZ6YcBAn-g-6" value="&lt;font style=&quot;font-size: 20px;&quot;&gt;使用Hardhat网络&lt;/font&gt;" style="text;html=1;align=center;verticalAlign=middle;resizable=0;points=[];autosize=1;strokeColor=none;fillColor=none;" vertex="1" parent="KHwoJJ3RHJZZ6YcBAn-g-8">
          <mxGeometry width="170" height="40" as="geometry" />
        </mxCell>
        <mxCell id="KHwoJJ3RHJZZ6YcBAn-g-9" value="" style="group" vertex="1" connectable="0" parent="1">
          <mxGeometry x="204" y="477" width="245" height="48" as="geometry" />
        </mxCell>
        <mxCell id="KHwoJJ3RHJZZ6YcBAn-g-10" value="" style="html=1;shadow=0;dashed=0;align=center;verticalAlign=middle;shape=mxgraph.arrows2.arrow;dy=0.5;dx=15;direction=north;notch=0;rounded=0;strokeWidth=1;fontSize=20;rotation=90;horizontal=0;labelPosition=left;verticalLabelPosition=middle;fillColor=#e1d5e7;strokeColor=#9673a6;" vertex="1" parent="KHwoJJ3RHJZZ6YcBAn-g-9">
          <mxGeometry x="180" y="-17" width="20" height="110" as="geometry" />
        </mxCell>
        <mxCell id="KHwoJJ3RHJZZ6YcBAn-g-11" value="&lt;font style=&quot;font-size: 20px;&quot;&gt;编写单元测试&lt;/font&gt;" style="text;html=1;align=center;verticalAlign=middle;resizable=0;points=[];autosize=1;strokeColor=none;fillColor=none;" vertex="1" parent="KHwoJJ3RHJZZ6YcBAn-g-9">
          <mxGeometry x="100" width="140" height="40" as="geometry" />
        </mxCell>
        <mxCell id="KHwoJJ3RHJZZ6YcBAn-g-13" value="" style="group" vertex="1" connectable="0" parent="1">
          <mxGeometry x="187" y="438" width="245" height="48" as="geometry" />
        </mxCell>
        <mxCell id="KHwoJJ3RHJZZ6YcBAn-g-14" value="" style="html=1;shadow=0;dashed=0;align=center;verticalAlign=middle;shape=mxgraph.arrows2.arrow;dy=0.5;dx=15;direction=north;notch=0;rounded=0;strokeWidth=1;fontSize=20;rotation=90;horizontal=0;labelPosition=left;verticalLabelPosition=middle;fillColor=#e1d5e7;strokeColor=#9673a6;" vertex="1" parent="KHwoJJ3RHJZZ6YcBAn-g-13">
          <mxGeometry x="180" y="-17" width="20" height="110" as="geometry" />
        </mxCell>
        <mxCell id="KHwoJJ3RHJZZ6YcBAn-g-15" value="&lt;font style=&quot;font-size: 20px;&quot;&gt;了解安全漏洞&lt;/font&gt;" style="text;html=1;align=center;verticalAlign=middle;resizable=0;points=[];autosize=1;strokeColor=none;fillColor=none;" vertex="1" parent="KHwoJJ3RHJZZ6YcBAn-g-13">
          <mxGeometry x="100" width="140" height="40" as="geometry" />
        </mxCell>
        <mxCell id="KHwoJJ3RHJZZ6YcBAn-g-16" value="" style="group" vertex="1" connectable="0" parent="1">
          <mxGeometry x="340" y="400" width="260" height="48" as="geometry" />
        </mxCell>
        <mxCell id="KHwoJJ3RHJZZ6YcBAn-g-17" value="" style="html=1;shadow=0;dashed=0;align=center;verticalAlign=middle;shape=mxgraph.arrows2.arrow;dy=0.5;dx=15;direction=north;notch=0;rounded=0;strokeWidth=1;fontSize=20;rotation=90;horizontal=0;labelPosition=left;verticalLabelPosition=middle;fillColor=#e1d5e7;strokeColor=#9673a6;" vertex="1" parent="KHwoJJ3RHJZZ6YcBAn-g-16">
          <mxGeometry x="10" y="-17" width="20" height="110" as="geometry" />
        </mxCell>
        <mxCell id="KHwoJJ3RHJZZ6YcBAn-g-18" value="&lt;font style=&quot;font-size: 20px;&quot;&gt;使用静态分析工具&lt;/font&gt;" style="text;html=1;align=center;verticalAlign=middle;resizable=0;points=[];autosize=1;strokeColor=none;fillColor=none;" vertex="1" parent="KHwoJJ3RHJZZ6YcBAn-g-16">
          <mxGeometry x="-110" width="180" height="40" as="geometry" />
        </mxCell>
        <mxCell id="KHwoJJ3RHJZZ6YcBAn-g-19" value="" style="group" vertex="1" connectable="0" parent="1">
          <mxGeometry x="320" y="360" width="260" height="48" as="geometry" />
        </mxCell>
        <mxCell id="KHwoJJ3RHJZZ6YcBAn-g-20" value="" style="html=1;shadow=0;dashed=0;align=center;verticalAlign=middle;shape=mxgraph.arrows2.arrow;dy=0.5;dx=15;direction=north;notch=0;rounded=0;strokeWidth=1;fontSize=20;rotation=90;horizontal=0;labelPosition=left;verticalLabelPosition=middle;fillColor=#e1d5e7;strokeColor=#9673a6;" vertex="1" parent="KHwoJJ3RHJZZ6YcBAn-g-19">
          <mxGeometry x="10" y="-17" width="20" height="110" as="geometry" />
        </mxCell>
        <mxCell id="KHwoJJ3RHJZZ6YcBAn-g-21" value="&lt;span style=&quot;font-size: 20px;&quot;&gt;考虑形式化验证&lt;/span&gt;" style="text;html=1;align=center;verticalAlign=middle;resizable=0;points=[];autosize=1;strokeColor=none;fillColor=none;" vertex="1" parent="KHwoJJ3RHJZZ6YcBAn-g-19">
          <mxGeometry x="-100" width="160" height="40" as="geometry" />
        </mxCell>
        <mxCell id="KHwoJJ3RHJZZ6YcBAn-g-22" value="" style="group" vertex="1" connectable="0" parent="1">
          <mxGeometry x="300" y="320" width="260" height="48" as="geometry" />
        </mxCell>
        <mxCell id="KHwoJJ3RHJZZ6YcBAn-g-23" value="" style="html=1;shadow=0;dashed=0;align=center;verticalAlign=middle;shape=mxgraph.arrows2.arrow;dy=0.5;dx=15;direction=north;notch=0;rounded=0;strokeWidth=1;fontSize=20;rotation=90;horizontal=0;labelPosition=left;verticalLabelPosition=middle;fillColor=#e1d5e7;strokeColor=#9673a6;" vertex="1" parent="KHwoJJ3RHJZZ6YcBAn-g-22">
          <mxGeometry x="10" y="-17" width="20" height="110" as="geometry" />
        </mxCell>
        <mxCell id="KHwoJJ3RHJZZ6YcBAn-g-24" value="&lt;span style=&quot;font-size: 20px;&quot;&gt;安全审计合约&lt;/span&gt;" style="text;html=1;align=center;verticalAlign=middle;resizable=0;points=[];autosize=1;strokeColor=none;fillColor=none;" vertex="1" parent="KHwoJJ3RHJZZ6YcBAn-g-22">
          <mxGeometry x="-90" width="140" height="40" as="geometry" />
        </mxCell>
      </root>
    </mxGraphModel>
  </diagram>
</mxfile>
